# xmcd
#
# Track frame offsets:
#	150
#	16350
#	30579
#	44599
#	58284
#	74359
#	86575
#	102963
#	117986
#	129986
#	145894
#	158987
#	174302
#	187911
#	201875
#	216194
#	234888
#
# Disc length: 3360 seconds
#
# Revision: 0
# Processed by: cddbd v1.5.1PL2 Copyright (c) Steve Scherf et al.
# Submitted via: SynApp - FreeCDDB Version: 2.0
#
DISCID=ed0d1e11
DTITLE=Kastelruther Spatzen - Feuer im ewigen Eis
DYEAR=1900
DGENRE=Volksmusik
TTITLE0=Kastelruther Spatzen - Verbotene Liebe
TTITLE1=Alexandra komm heim
TTITLE2=Tr‰nen am Ende der Liebe
TTITLE3=Die kleine Bianca
TTITLE4=Party Mix
TTITLE5=A bisserl  Herzlichkeit
TTITLE6=Ave Maria der Heimat
TTITLE7=Das schwarze Schiff
TTITLE8=Tr‰nen passen nicht zu dir
TTITLE9=Streit oder Frieden
TTITLE10=Feuer im ewigen Eis
TTITLE11=Wenn Berge tr‰umen
TTITLE12=Richard und Jasmin
TTITLE13=Meine erste groﬂe Liebe
TTITLE14=Hochzeit ohne G‰ste
TTITLE15=Das M‰dchen mit den erloschenen Augen
TTITLE16=Sieben rote Rosen
EXTD=
EXTT0=
EXTT1=
EXTT2=
EXTT3=
EXTT4=
EXTT5=
EXTT6=
EXTT7=
EXTT8=
EXTT9=
EXTT10=
EXTT11=
EXTT12=
EXTT13=
EXTT14=
EXTT15=
EXTT16=
PLAYORDER=
